<svg width="16" height="16" viewBox="0 0 16 16" fill="none" xmlns="http://www.w3.org/2000/svg">
<circle cx="8" cy="8" r="7" stroke="#B4B8CC" stroke-width="1.5"/>
<path d="M8.33784 4C8.66817 4 8.93343 4.08269 9.13363 4.24806C9.34384 4.41344 9.43894 4.61671 9.41892 4.85788C9.40891 5.09216 9.29379 5.29199 9.07357 5.45736C8.85335 5.61585 8.57808 5.69509 8.24775 5.69509C7.90741 5.69509 7.63213 5.61585 7.42192 5.45736C7.22172 5.29199 7.12663 5.09216 7.13664 4.85788C7.15666 4.61671 7.28679 4.41344 7.52703 4.24806C7.76727 4.08269 8.03754 4 8.33784 4ZM7.81231 6.60465C8.33283 6.60465 8.69319 6.7149 8.89339 6.9354C9.1036 7.14901 9.20871 7.43842 9.20871 7.80362C9.20871 7.96899 9.18368 8.19294 9.13363 8.47545C9.08358 8.75797 9.02853 9.05426 8.96847 9.36434C8.90841 9.67442 8.85335 9.95693 8.8033 10.2119C8.75325 10.4668 8.72823 10.6529 8.72823 10.77C8.72823 10.8803 8.75325 10.9526 8.8033 10.9871C8.85335 11.0215 8.9034 11.0388 8.95345 11.0388C9.07357 11.0388 9.19369 10.9802 9.31381 10.863C9.43393 10.7459 9.55906 10.5323 9.68919 10.2222L10.5 10.3876C10.46 10.5323 10.3799 10.6977 10.2598 10.8837C10.1496 11.0698 9.9995 11.2489 9.80931 11.4212C9.61912 11.5866 9.38889 11.7244 9.11862 11.8346C8.85836 11.9449 8.55806 12 8.21772 12C7.66717 12 7.28679 11.8966 7.07658 11.6899C6.87638 11.4832 6.77628 11.1972 6.77628 10.832C6.77628 10.6322 6.8013 10.3945 6.85135 10.1189C6.9014 9.84324 6.95646 9.56072 7.01652 9.27132C7.08659 8.98191 7.14665 8.71318 7.1967 8.46512C7.24675 8.21016 7.27177 8 7.27177 7.83463C7.27177 7.71748 7.24675 7.64513 7.1967 7.61757C7.14665 7.58312 7.09159 7.56589 7.03153 7.56589C6.92142 7.56589 6.80631 7.62446 6.68619 7.7416C6.56607 7.85874 6.44094 8.07235 6.31081 8.38243L5.5 8.21705C5.54004 8.07235 5.62012 7.90698 5.74024 7.72093C5.86036 7.53488 6.01552 7.35917 6.20571 7.1938C6.40591 7.02153 6.63614 6.88028 6.8964 6.77003C7.16667 6.65978 7.47197 6.60465 7.81231 6.60465Z" fill="#B4B8CC"/>
</svg>
