<svg width="14" height="14" viewBox="0 0 14 14" fill="none" xmlns="http://www.w3.org/2000/svg">
<path d="M6 3.9C6.49706 3.9 6.9 3.49706 6.9 3C6.9 2.50294 6.49706 2.1 6 2.1V3.9ZM11.9 8C11.9 7.50294 11.4971 7.1 11 7.1C10.5029 7.1 10.1 7.50294 10.1 8H11.9ZM1.58579 12.4142L0.94939 13.0506L1.58579 12.4142ZM10.4142 12.4142L11.0506 13.0506L10.4142 12.4142ZM7 12.1L5 12.1V13.9L7 13.9V12.1ZM1.9 9L1.9 7H0.1L0.1 9H1.9ZM5 3.9H6V2.1H5V3.9ZM10.1 8L10.1 9H11.9L11.9 8H10.1ZM5 12.1C4.03175 12.1 3.3961 12.0981 2.92538 12.0348C2.48055 11.975 2.31998 11.8756 2.22218 11.7778L0.94939 13.0506C1.43738 13.5386 2.04111 13.7321 2.68553 13.8188C3.30407 13.9019 4.08263 13.9 5 13.9V12.1ZM0.1 9C0.1 9.91737 0.0980887 10.6959 0.181249 11.3145C0.26789 11.9589 0.461405 12.5626 0.94939 13.0506L2.22218 11.7778C2.12438 11.68 2.025 11.5194 1.9652 11.0746C1.90191 10.6039 1.9 9.96825 1.9 9H0.1ZM7 13.9C7.91737 13.9 8.69593 13.9019 9.31447 13.8188C9.95889 13.7321 10.5626 13.5386 11.0506 13.0506L9.77782 11.7778C9.68002 11.8756 9.51945 11.975 9.07462 12.0348C8.6039 12.0981 7.96825 12.1 7 12.1V13.9ZM10.1 9C10.1 9.96825 10.0981 10.6039 10.0348 11.0746C9.975 11.5194 9.87562 11.68 9.77782 11.7778L11.0506 13.0506C11.5386 12.5626 11.7321 11.9589 11.8188 11.3145C11.9019 10.6959 11.9 9.91737 11.9 9H10.1ZM1.9 7C1.9 6.03175 1.90191 5.3961 1.9652 4.92538C2.025 4.48055 2.12438 4.31998 2.22218 4.22218L0.94939 2.94939C0.461405 3.43738 0.26789 4.04111 0.181249 4.68553C0.0980887 5.30407 0.1 6.08263 0.1 7H1.9ZM5 2.1C4.08263 2.1 3.30407 2.09809 2.68553 2.18125C2.04111 2.26789 1.43738 2.46141 0.94939 2.94939L2.22218 4.22218C2.31998 4.12438 2.48055 4.025 2.92538 3.9652C3.3961 3.90191 4.03175 3.9 5 3.9V2.1Z" fill="white"/>
<path d="M6 8L13 1M13 1V6M13 1L8 1" stroke="white" stroke-width="1.8" stroke-linecap="round" stroke-linejoin="round"/>
</svg>
