<svg width="32" height="32" viewBox="0 0 32 32" fill="none" xmlns="http://www.w3.org/2000/svg">
<path d="M0 16C0 7.16344 7.16344 0 16 0C24.8366 0 32 7.16344 32 16C32 24.8366 24.8366 32 16 32C7.16344 32 0 24.8366 0 16Z" fill="#E6E9F0"/>
<path fill-rule="evenodd" clip-rule="evenodd" d="M7.64836 16.0001C7.64836 11.3876 11.3875 7.64844 16 7.64844C17.9459 7.64844 19.7363 8.31391 21.1561 9.42969L9.42961 21.1562C8.31384 19.7364 7.64836 17.9459 7.64836 16.0001ZM10.8438 22.5704C12.2637 23.6862 14.0541 24.3517 16 24.3517C20.6125 24.3517 24.3516 20.6125 24.3516 16.0001C24.3516 14.0542 23.6861 12.2637 22.5704 10.8439L10.8438 22.5704ZM16 5.64844C10.2829 5.64844 5.64836 10.283 5.64836 16.0001C5.64836 21.7171 10.2829 26.3517 16 26.3517C21.717 26.3517 26.3516 21.7171 26.3516 16.0001C26.3516 10.283 21.717 5.64844 16 5.64844Z" fill="#9598AD"/>
</svg>
