<svg width="24" height="24" viewBox="0 0 24 24" fill="none" xmlns="http://www.w3.org/2000/svg">
<rect x="1" y="1" width="22" height="22" rx="11" fill="#6D38FF"/>
<path d="M8.68394 11.7705C8.28103 11.3927 7.64819 11.4131 7.27046 11.8161C6.89273 12.219 6.91315 12.8518 7.31606 13.2295L8.68394 11.7705ZM10.6667 15L9.98273 15.7295C10.3674 16.0902 10.9659 16.0902 11.3506 15.7295L10.6667 15ZM16.6839 10.7295C17.0869 10.3518 17.1073 9.71897 16.7295 9.31606C16.3518 8.91315 15.719 8.89273 15.3161 9.27046L16.6839 10.7295ZM7.31606 13.2295L9.98273 15.7295L11.3506 14.2705L8.68394 11.7705L7.31606 13.2295ZM11.3506 15.7295L16.6839 10.7295L15.3161 9.27046L9.98273 14.2705L11.3506 15.7295Z" fill="white"/>
<rect x="1" y="1" width="22" height="22" rx="11" stroke="white" stroke-width="2"/>
</svg>
