<svg width="21" height="22" viewBox="0 0 21 22" fill="none" xmlns="http://www.w3.org/2000/svg">
<path d="M10.5002 1.75C3.56324 1.75 1.25024 4.063 1.25024 11C1.25024 17.937 3.56324 20.25 10.5002 20.25C17.4372 20.25 19.7502 17.937 19.7502 11" stroke="#15151F" stroke-width="2" stroke-linecap="round" stroke-linejoin="round"/>
<path fill-rule="evenodd" clip-rule="evenodd" d="M18.0285 3.30364C17.0355 2.42464 15.5185 2.51664 14.6395 3.50964C14.6395 3.50964 10.2705 8.44464 8.75553 10.1576C7.23853 11.8696 8.35053 14.2346 8.35053 14.2346C8.35053 14.2346 10.8545 15.0276 12.3485 13.3396C13.8435 11.6516 18.2345 6.69264 18.2345 6.69264C19.1135 5.69964 19.0205 4.18264 18.0285 3.30364Z" stroke="#15151F" stroke-width="2" stroke-linecap="round" stroke-linejoin="round"/>
<path d="M13.509 4.80078L17.104 7.98378" stroke="#15151F" stroke-width="2" stroke-linecap="round" stroke-linejoin="round"/>
</svg>
