<svg width="32" height="32" viewBox="0 0 32 32" fill="none" xmlns="http://www.w3.org/2000/svg">
<path d="M0 16C0 7.16344 7.16344 0 16 0C24.8366 0 32 7.16344 32 16C32 24.8366 24.8366 32 16 32C7.16344 32 0 24.8366 0 16Z" fill="#F0F2FA"/>
<path d="M14.8235 20.0706H9.80005" stroke="#15151F" stroke-width="2" stroke-linecap="round" stroke-linejoin="round"/>
<path fill-rule="evenodd" clip-rule="evenodd" d="M17.9755 20.0709C17.9755 21.6556 18.5039 22.1834 20.0879 22.1834C21.6719 22.1834 22.2003 21.6556 22.2003 20.0709C22.2003 18.4863 21.6719 17.9585 20.0879 17.9585C18.5039 17.9585 17.9755 18.4863 17.9755 20.0709Z" stroke="#15151F" stroke-width="2" stroke-linecap="round" stroke-linejoin="round"/>
<path d="M17.1772 11.9299H22.2" stroke="#15151F" stroke-width="2" stroke-linecap="round" stroke-linejoin="round"/>
<path fill-rule="evenodd" clip-rule="evenodd" d="M14.0253 11.9293C14.0253 10.3454 13.4968 9.81689 11.9128 9.81689C10.3281 9.81689 9.79968 10.3454 9.79968 11.9293C9.79968 13.514 10.3281 14.0418 11.9128 14.0418C13.4968 14.0418 14.0253 13.514 14.0253 11.9293Z" stroke="#15151F" stroke-width="2" stroke-linecap="round" stroke-linejoin="round"/>
</svg>
