<svg width="32" height="32" viewBox="0 0 32 32" fill="none" xmlns="http://www.w3.org/2000/svg">
<path d="M0 16C0 7.16344 7.16344 0 16 0C24.8366 0 32 7.16344 32 16C32 24.8366 24.8366 32 16 32C7.16344 32 0 24.8366 0 16Z" fill="white"/>
<circle cx="16" cy="16" r="15.5" stroke="#CED3E0"/>
<g clip-path="url(#clip0_33_3794)">
<path fill-rule="evenodd" clip-rule="evenodd" d="M16 21C14.6739 21 13.4021 20.4732 12.4645 19.5355C11.5268 18.5979 11 17.3261 11 16C11 14.6739 11.5268 13.4021 12.4645 12.4645C13.4021 11.5268 14.6739 11 16 11C17.2261 11.001 18.4081 11.458 19.316 12.282L17 14.402L24.002 16.127L22.901 9L20.804 10.92C19.509 9.68634 17.7886 8.99877 16 9C14.1435 9 12.363 9.7375 11.0503 11.0503C9.7375 12.363 9 14.1435 9 16C9 17.8565 9.7375 19.637 11.0503 20.9497C12.363 22.2625 14.1435 23 16 23C17.2995 22.9994 18.5732 22.6368 19.6782 21.9529C20.7832 21.269 21.6758 20.2908 22.256 19.128L20.455 18.227C19.633 19.865 17.957 21 16 21Z" fill="#15151F"/>
</g>
<defs>
<clipPath id="clip0_33_3794">
<rect width="16" height="16" fill="white" transform="translate(8 8)"/>
</clipPath>
</defs>
</svg>
